<svg width="130" height="52" viewBox="0 0 130 52" fill="none" xmlns="http://www.w3.org/2000/svg">
<path fill-rule="evenodd" clip-rule="evenodd" d="M108.616 43.8113L108.731 43.7422L108.616 43.8113Z" fill="#5C707B"/>
<path fill-rule="evenodd" clip-rule="evenodd" d="M28.3422 33.7694L28.4861 33.3622C28.9107 32.1951 29.174 31.5691 29.1769 24.4544V17.1397C29.2854 15.8231 29.1388 14.498 28.7452 13.2369C28.3135 12.3275 27.5709 11.7792 25.7735 11.7634C24.7221 11.7569 23.681 11.9713 22.7176 12.3927C21.7543 12.8141 20.8902 13.4332 20.1813 14.2097V24.4544C20.1813 27.6779 20.1813 29.3069 20.344 31.0352C20.4022 31.8362 20.5818 32.6237 20.8764 33.3708L21.0102 33.7709H14.1028L14.3071 33.3391C14.6252 32.6915 14.8083 31.986 14.8453 31.2655C14.9734 30.0725 15.0425 28.0851 15.0425 24.4573V16.6C15.1209 15.5167 14.9658 14.4293 14.5877 13.4111C14.2962 12.8565 13.8394 12.4063 13.2807 12.1227C12.7221 11.8391 12.089 11.7361 11.4693 11.8281C9.419 11.8998 7.47507 12.7584 6.04116 14.2256V24.4558C6.04116 27.6793 6.04116 29.3083 6.20378 31.0367C6.26281 31.8375 6.44231 32.6249 6.73623 33.3722L6.86862 33.7723H0.0633185L0.207224 33.365C0.627429 32.198 0.895094 31.572 0.897972 24.4573V19.766C0.897972 19.4393 0.897972 14.7393 0.735358 12.4742C0.672286 11.5058 0.458158 10.5531 0.100734 9.65082L0 9.363L5.56196 7.38862L5.81235 9.74292C7.72958 8.09353 10.1916 7.21593 12.7198 7.28069C14.3993 7.25868 16.054 7.68702 17.5119 8.52116C18.1104 8.87268 18.6224 9.35414 19.01 9.92999C21.1692 8.18078 23.8727 7.24293 26.6513 7.27925C28.9538 7.28932 32.2047 8.03188 33.5272 10.3905C34.2419 12.031 34.5171 13.8293 34.3258 15.6085V24.453C34.3258 28.2219 34.382 29.6825 34.4899 31.0309C34.556 31.8312 34.7352 32.618 35.0223 33.3679L35.1562 33.768L28.3422 33.7694Z" fill="#5C707B"/>
<path fill-rule="evenodd" clip-rule="evenodd" d="M63.0613 31.6679C62.4473 30.2006 62.1899 28.6087 62.3101 27.0226V12.2032H59.6953V7.46727L60.0292 7.50181C61.0164 7.6011 61.4582 7.65435 62.3705 7.70471V1.85926L67.5094 0V7.7191H71.8395C72.625 7.71754 73.4066 7.61058 74.1636 7.40107L74.5953 7.28739L74.5464 7.72918C74.4667 8.7775 74.3065 9.81813 74.0672 10.8419C74.0161 11.1288 73.8879 11.3964 73.6962 11.616C73.5045 11.8355 73.2567 11.9988 72.9793 12.0881C72.5707 12.184 72.1508 12.2227 71.7316 12.2032H67.5094V25.9851C67.4439 26.9409 67.5736 27.9001 67.8907 28.8042C68.0436 29.1344 68.2982 29.407 68.6173 29.582C68.9363 29.7571 69.303 29.8254 69.6637 29.777C70.6045 29.6788 71.5154 29.3896 72.3407 28.9271C73.1659 28.4646 73.888 27.8386 74.4629 27.0874L75.0184 26.4844L74.9896 27.3047C74.9953 28.7427 74.8691 30.1781 74.6126 31.5931C74.5676 31.8568 74.4628 32.1066 74.3061 32.3234C74.1494 32.5402 73.9451 32.7182 73.7089 32.8436C72.084 33.7846 70.2296 34.2554 68.3527 34.2035H68.3052C65.4055 34.2035 63.8254 33.13 63.067 31.6665" fill="#5C707B"/>
<path fill-rule="evenodd" clip-rule="evenodd" d="M77.7996 33.7689L77.9435 33.3616C78.3652 32.1931 78.6299 31.5686 78.6343 24.4539V19.8172C78.6343 17.5795 78.6343 14.6366 78.4716 12.4579C78.4491 11.4954 78.2516 10.545 77.8888 9.65317L77.7881 9.36536L83.1227 7.3809L83.4234 9.71937C84.1427 8.95115 85.0118 8.33849 85.9771 7.91922C86.9424 7.49994 87.9834 7.28294 89.0358 7.2816C89.4139 7.27659 89.7908 7.32504 90.1553 7.42551C90.439 7.47907 90.6963 7.62689 90.8854 7.845C91.0745 8.06312 91.1844 8.33872 91.1972 8.62712C91.1573 9.0844 91.0606 9.53493 90.9094 9.96832L90.0604 12.7788L89.7726 12.6795C89.2479 12.4689 88.6873 12.3619 88.122 12.3644C87.2954 12.372 86.4791 12.5491 85.7237 12.8847C84.9682 13.2204 84.2897 13.7074 83.73 14.3157V24.4539C83.73 28.2228 83.7818 29.682 83.8911 31.0332C83.9558 31.8331 84.1346 32.6196 84.4221 33.3688L84.5545 33.7689H77.7996Z" fill="#5C707B"/>
<path fill-rule="evenodd" clip-rule="evenodd" d="M93.8855 33.7684L94.0424 33.3569C94.4597 32.2531 94.7288 31.5667 94.7317 24.4549V19.706C94.7317 17.5805 94.7317 14.5254 94.5662 12.4718C94.5044 11.5075 94.2908 10.559 93.933 9.66135L93.8193 9.36203L99.872 7.38477V24.4534C99.872 28.2223 99.9253 29.683 100.035 31.0328C100.1 31.8327 100.279 32.6192 100.567 33.3684L100.701 33.7684H93.8855Z" fill="#5C707B"/>
<path fill-rule="evenodd" clip-rule="evenodd" d="M111.252 7.71484H111.513L111.551 7.97387C111.865 9.69127 112.577 11.311 113.631 12.7026L116.682 17.0802C121.356 11.6852 121.881 10.0605 122.255 7.96668L122.298 7.71484H128.062L127.918 8.12066C126.029 12.8752 123.121 17.1577 119.397 20.6664L124.985 28.6488C126.108 30.2805 127.359 31.8204 128.727 33.2538L129.193 33.7632H121.376V33.4596C121.364 32.2997 121.376 32.1299 119.462 29.2086L115.795 23.8395C114.181 25.5318 110.707 29.4518 109.964 33.5143L109.918 33.7632H103.824L103.979 33.3531C106.071 28.416 109.158 23.9623 113.045 20.2692L108.22 13.2178C107.042 11.4854 105.772 9.81752 104.415 8.22139L103.983 7.71916H111.252" fill="#5C707B"/>
<path fill-rule="evenodd" clip-rule="evenodd" d="M50.9772 26.4304C50.9693 27.0218 50.8055 27.6007 50.5022 28.1086C50.199 28.6164 49.7672 29.0353 49.2503 29.3229C48.5284 29.7514 47.7053 29.9799 46.8658 29.9849C46.4494 30.025 46.0292 29.9725 45.6354 29.8311C45.2416 29.6898 44.8839 29.463 44.5881 29.1672C44.2922 28.8713 44.0655 28.5137 43.9241 28.1199C43.7828 27.7261 43.7303 27.3059 43.7704 26.8894C43.7704 23.2342 47.6256 22.2715 50.9743 22.119L50.9772 26.4304ZM58.1121 31.6484C56.7881 30.5087 56.2255 29.8438 56.1995 26.5311V14.4114C56.3259 12.8492 55.9719 11.2856 55.185 9.93016C54.1532 8.41915 52.0982 7.28085 48.1984 7.28517C46.1153 7.28284 44.0496 7.66533 42.1054 8.41339C40.4577 9.09982 39.2604 9.9316 39.2129 11.0296C39.2347 11.3224 39.2712 11.614 39.3223 11.9031V11.9448L39.3324 11.9823L40.1814 15.1252L40.5541 14.7323C41.4519 13.7753 42.5338 13.0096 43.7349 12.4811C44.936 11.9526 46.2315 11.6723 47.5436 11.657C49.2446 11.657 50.0289 12.119 50.4534 12.7723C50.8668 13.6208 51.0391 14.5667 50.9513 15.5065V17.6795C48.1585 17.7766 45.4189 18.4709 42.917 19.7157C41.5988 20.3881 40.4991 21.4218 39.7463 22.6959C38.9936 23.97 38.6189 25.4319 38.6661 26.911C38.628 28.6314 39.1314 30.3203 40.1051 31.7391C40.7672 32.5872 41.6271 33.2602 42.6095 33.699C43.592 34.1377 44.667 34.329 45.7405 34.256H45.7664C48.0919 34.3392 50.36 33.5222 52.0982 31.9751C52.7573 33.7019 53.5675 34.2344 54.1431 34.256C54.5007 34.2094 54.8442 34.0867 55.1505 33.8962L58.4272 31.9161L58.1121 31.6484Z" fill="#5C707B"/>
<path d="M0.745117 41.7334V50.6556H1.73519V46.7773H2.59862C2.95372 46.8285 3.3157 46.8019 3.65947 46.6992C4.00323 46.5966 4.32056 46.4204 4.58944 46.1828C4.85831 45.9453 5.07231 45.6521 5.21658 45.3237C5.36085 44.9952 5.43194 44.6393 5.42493 44.2806C5.43511 43.9218 5.36744 43.565 5.22658 43.2349C5.08573 42.9047 4.87503 42.609 4.60899 42.368C3.96503 41.8852 3.16367 41.6609 2.36262 41.7392L0.745117 41.7334ZM1.73519 42.6688H2.47055C3.11237 42.6688 4.4363 42.8026 4.4363 44.2201C4.4363 45.2505 3.72684 45.8376 2.55113 45.8376H1.73519V42.6688ZM14.9069 50.6527H16.0034L12.0043 41.2988L7.89867 50.6527H8.99523L10.0645 48.1387H13.8621L14.9069 50.6527ZM10.4544 47.199L11.9784 43.6287L13.4765 47.199H10.4544ZM20.0558 41.7305V50.6527H21.0459V46.7485H21.3006L24.0147 50.6527H25.2177L22.3828 46.668C22.6924 46.6554 22.9964 46.5816 23.2773 46.4509C23.5582 46.3201 23.8104 46.135 24.0193 45.9061C24.2281 45.6773 24.3896 45.4093 24.4943 45.1177C24.599 44.8261 24.6448 44.5166 24.6292 44.2072C24.6428 43.8224 24.5608 43.4402 24.3905 43.0949C24.2203 42.7496 23.967 42.4519 23.6535 42.2285C22.9946 41.8576 22.2423 41.6856 21.4877 41.7334L20.0558 41.7305ZM21.0459 42.6659H21.6474C22.0902 42.6375 22.5327 42.7253 22.9311 42.9206C23.1618 43.049 23.3512 43.2405 23.4768 43.4728C23.6025 43.705 23.6593 43.9682 23.6405 44.2316C23.6405 45.2749 22.9052 45.8635 21.6748 45.8635H21.0459V42.6659ZM33.924 42.6659V41.7305H28.5995V42.6659H30.7667V50.6498H31.7568V42.6659H33.924ZM39.0456 50.6498V43.7625L45.9992 51.0513V41.7334H45.0134V48.6409L38.0556 41.3593V50.6527L39.0456 50.6498ZM55.7214 41.7277H51.0934V50.6498H55.72V49.7144H52.0835V46.2506H55.6135V45.3152H52.0835V42.6674H55.7214V41.7277ZM60.335 41.7277V50.6498H61.3251V46.7457H61.5798L64.2968 50.6541H65.4998L62.6649 46.6694C62.9745 46.6569 63.2785 46.5831 63.5594 46.4523C63.8403 46.3215 64.0925 46.1364 64.3013 45.9076C64.5102 45.6787 64.6717 45.4108 64.7764 45.1191C64.8811 44.8275 64.9269 44.518 64.9112 44.2086C64.9249 43.8238 64.8429 43.4417 64.6726 43.0964C64.5024 42.751 64.2491 42.4533 63.9356 42.2299C63.2767 41.859 62.5244 41.6871 61.7698 41.7349L60.335 41.7277ZM61.3251 42.6631H61.9266C62.3694 42.6346 62.8119 42.7224 63.2103 42.9178C63.441 43.0461 63.6304 43.2376 63.7561 43.4699C63.8817 43.7021 63.9385 43.9654 63.9197 44.2288C63.9197 45.2721 63.1844 45.8606 61.954 45.8606H61.3251V42.6631ZM74.6177 42.971C74.4158 42.5749 74.1192 42.2348 73.7543 41.9809C73.3314 41.7002 72.831 41.5597 72.3238 41.5794C72.0052 41.5519 71.6843 41.591 71.3816 41.6943C71.0789 41.7975 70.8011 41.9628 70.5658 42.1794C70.3305 42.396 70.1429 42.6593 70.0149 42.9524C69.887 43.2455 69.8216 43.5621 69.8228 43.8819C69.8112 44.1552 69.8603 44.4277 69.9665 44.6797C70.0728 44.9318 70.2335 45.1572 70.4372 45.3397C70.787 45.6537 71.19 45.9027 71.6273 46.0751L72.4303 46.4492C72.8172 46.5958 73.1781 46.8033 73.4995 47.0637C73.6454 47.1944 73.7606 47.3557 73.837 47.536C73.9133 47.7163 73.949 47.9113 73.9413 48.107C73.9527 48.3441 73.914 48.581 73.8276 48.8021C73.7413 49.0232 73.6092 49.2237 73.4401 49.3903C73.2711 49.5569 73.0687 49.686 72.8464 49.7692C72.624 49.8523 72.3866 49.8876 72.1497 49.8727C71.9131 49.8839 71.6768 49.8456 71.4558 49.7604C71.2347 49.6752 71.0339 49.5448 70.8661 49.3777C70.5761 49.0621 70.3893 48.6655 70.3307 48.2408L69.368 48.5085C69.4901 49.1035 69.7774 49.6521 70.1969 50.0915C70.4556 50.3348 70.7604 50.5238 71.0933 50.6473C71.4262 50.7709 71.7805 50.8266 72.1353 50.811C72.5032 50.8297 72.8711 50.7723 73.2158 50.6423C73.5604 50.5122 73.8745 50.3124 74.1384 50.0553C74.4022 49.7982 74.6102 49.4894 74.7491 49.1482C74.888 48.807 74.955 48.4408 74.9458 48.0725C74.9576 47.773 74.9066 47.4744 74.7961 47.1958C74.6856 46.9172 74.5179 46.6649 74.304 46.455C73.9031 46.0905 73.4374 45.8045 72.9311 45.6117L72.0749 45.2375C71.7305 45.111 71.4132 44.9206 71.1395 44.6763C71.0269 44.5822 70.938 44.463 70.88 44.3283C70.8221 44.1935 70.7966 44.0471 70.8056 43.9006C70.8036 43.7088 70.8419 43.5186 70.918 43.3425C70.9942 43.1664 71.1066 43.0082 71.2479 42.8784C71.3892 42.7485 71.5562 42.6498 71.738 42.5886C71.9199 42.5275 72.1127 42.5053 72.3037 42.5235C72.6646 42.5098 73.0195 42.6183 73.311 42.8314C73.5274 43.0177 73.7045 43.2452 73.832 43.5006L74.6177 42.971ZM85.4768 41.7277V50.6498H86.4583V41.7277H85.4768ZM92.5512 50.6498V43.7625L99.5048 51.0513V41.7334H98.5147V48.6409L91.5597 41.3593V50.6527L92.5512 50.6498ZM104.6 50.6498H106.404C106.988 50.7012 107.578 50.6366 108.137 50.4598C108.697 50.283 109.217 49.9974 109.666 49.6195C110.172 49.2074 110.577 48.6842 110.848 48.0905C111.119 47.4967 111.25 46.8484 111.23 46.1959C111.247 45.5478 111.12 44.904 110.856 44.3116C110.592 43.7193 110.199 43.1934 109.706 42.7724C108.775 42.0332 107.604 41.6619 106.417 41.7291H104.599L104.6 50.6498ZM105.591 42.6659H106.454C106.94 42.6197 107.429 42.6774 107.891 42.8353C108.352 42.9932 108.775 43.2476 109.131 43.5816C109.486 43.9156 109.766 44.3215 109.953 44.7723C110.139 45.2231 110.227 45.7084 110.211 46.1959C110.228 46.7097 110.129 47.2207 109.92 47.6906C109.712 48.1606 109.4 48.5774 109.008 48.91C108.282 49.4778 107.375 49.7631 106.454 49.713H105.591V42.6659ZM115.848 41.7305V50.6527H116.838V41.7305H115.848ZM127.897 50.6527H128.994L124.995 41.2988L120.889 50.6527H121.986L123.055 48.1387H126.853L127.897 50.6527ZM123.445 47.199L124.969 43.6287L126.464 47.2033L123.445 47.199Z" fill="#AEAFB3"/>
</svg>
